<?xml version="1.0" encoding="utf-8"?>
<!-- Generator: Adobe Illustrator 24.3.0, SVG Export Plug-In . SVG Version: 6.00 Build 0)  -->
<svg version="1.1" id="Camada_1" xmlns="http://www.w3.org/2000/svg" xmlns:xlink="http://www.w3.org/1999/xlink" x="0px" y="0px"
	 viewBox="0 0 236.9 78.3" style="enable-background:new 0 0 236.9 78.3;" xml:space="preserve">
<style type="text/css">
	.st0{fill:#FFFFFF;}
</style>
<path class="st0" d="M65.3,23.1c5.6,0,10-4.5,10-10.1S70.9,3,65.3,3H15C9.5,3,5,7.5,5,13.1S9.5,23.1,15,23.1H65.3z"/>
<path class="st0" d="M27.6,48.9c-0.9,0-1.6,0.7-1.6,1.6v15c0,5.6-4.5,10.1-10,10.1S5.9,71.1,5.9,65.5V38.8c0-5.6,4.5-10.1,10.1-10.1
	h44.4c5.6,0,10.1,4.5,10.1,10.1s-4.5,10.1-10.1,10.1H27.6z"/>
<path class="st0" d="M100.4,65.5c0,5.6-4.5,10.1-10,10.1c-5.6,0-10.1-4.5-10.1-10.1V12.2c0-5.6,4.5-10.1,10.1-10.1
	c5.5,0,10,4.5,10,10.1V65.5z"/>
<path class="st0" d="M216.8,74.7c8.3,0,15.1-6.8,15.1-15.1c0-2.8-0.7-5.3-2-7.6L204,8c-2-3.5-5.8-5.9-10.1-5.9
	c-4.3,0-8.1,2.4-10.1,5.9l-26,44.8c-0.5,1.1-1.7,1.8-2.9,1.8H131c-1.8,0-3.3-1.5-3.3-3.3l0-39.2c0-5.6-4.5-10.1-10.1-10.1
	c-5.5,0-10.1,4.5-10.1,10.1v52.5c0,5.6,4.5,10.1,10.1,10.1h44.9c3.7,0,6.9-2,8.7-5L194,30.7l14,23.9h-19.1c-5.5,0-10,4.5-10,10.1
	s4.5,10.1,10,10.1L216.8,74.7L216.8,74.7z"/>
</svg>
